<?xml version="1.0" encoding="utf-8"?>
<!-- Generator: Adobe Illustrator 18.0.0, SVG Export Plug-In . SVG Version: 6.00 Build 0)  -->
<!DOCTYPE svg PUBLIC "-//W3C//DTD SVG 1.1//EN" "http://www.w3.org/Graphics/SVG/1.1/DTD/svg11.dtd">
<svg version="1.1" id="Layer_1" xmlns="http://www.w3.org/2000/svg" xmlns:xlink="http://www.w3.org/1999/xlink" x="0px" y="0px"
	 viewBox="0 0 30 25" enable-background="new 0 0 30 25" xml:space="preserve">
<g>
	<g>
		<path fill="none" stroke="#221F1F" stroke-linecap="round" stroke-miterlimit="10" d="M8.2,14.9C6.8,15.2,6,15.5,6,15.9
			c0,0.9,4,1.6,8.9,1.6s8.9-0.7,8.9-1.6c0-0.4-0.9-0.8-2.3-1.1"/>
		<path fill="none" stroke="#221F1F" stroke-linecap="round" stroke-miterlimit="10" d="M8.2,13.1c-4,0.6-6.7,1.8-6.7,3.1
			c0,2,6,3.6,13.4,3.6s13.4-1.6,13.4-3.6c0-1.3-2.7-2.5-6.8-3.1"/>
	</g>
	<g>
		<path fill="none" stroke="#221F1F" stroke-linecap="round" stroke-miterlimit="10" d="M12.5,5.3c0,0,2.6,2.8,0,5.4s0,4.9,0,4.9"/>
		<path fill="none" stroke="#221F1F" stroke-linecap="round" stroke-miterlimit="10" d="M15.4,5.3c0,0,2.6,2.8,0,5.4s0,4.9,0,4.9"/>
		<path fill="none" stroke="#221F1F" stroke-linecap="round" stroke-miterlimit="10" d="M18.1,5.3c0,0,2.6,2.8,0,5.4s0,4.9,0,4.9"/>
	</g>
</g>
</svg>
