<?xml version="1.0" encoding="UTF-8"?>
<svg class="lds-spinner" width="200px" height="200px" style="background:none" preserveAspectRatio="xMidYMid" viewBox="0 0 100 100" xmlns="http://www.w3.org/2000/svg">
  <g transform="rotate(0 50 50)">
    <rect x="47.5" y="24.5" width="5" height="13" rx="6.175" ry="3.185">
      <animate attributeName="opacity" begin="-1.0999999999999999s" dur="1.2s" keyTimes="0;1" repeatCount="indefinite" values="1;0"/>
    </rect>
  </g>
  <g transform="rotate(30 50 50)">
    <rect x="47.5" y="24.5" width="5" height="13" rx="6.175" ry="3.185">
      <animate attributeName="opacity" begin="-1s" dur="1.2s" keyTimes="0;1" repeatCount="indefinite" values="1;0"/>
    </rect>
  </g>
  <g transform="rotate(60 50 50)">
    <rect x="47.5" y="24.5" width="5" height="13" rx="6.175" ry="3.185">
      <animate attributeName="opacity" begin="-0.8999999999999999s" dur="1.2s" keyTimes="0;1" repeatCount="indefinite" values="1;0"/>
    </rect>
  </g>
  <g transform="rotate(90 50 50)">
    <rect x="47.5" y="24.5" width="5" height="13" rx="6.175" ry="3.185">
      <animate attributeName="opacity" begin="-0.7999999999999999s" dur="1.2s" keyTimes="0;1" repeatCount="indefinite" values="1;0"/>
    </rect>
  </g>
  <g transform="rotate(120 50 50)">
    <rect x="47.5" y="24.5" width="5" height="13" rx="6.175" ry="3.185">
      <animate attributeName="opacity" begin="-0.7000000000000001s" dur="1.2s" keyTimes="0;1" repeatCount="indefinite" values="1;0"/>
    </rect>
  </g>
  <g transform="rotate(150 50 50)">
    <rect x="47.5" y="24.5" width="5" height="13" rx="6.175" ry="3.185">
      <animate attributeName="opacity" begin="-0.6s" dur="1.2s" keyTimes="0;1" repeatCount="indefinite" values="1;0"/>
    </rect>
  </g>
  <g transform="rotate(180 50 50)">
    <rect x="47.5" y="24.5" width="5" height="13" rx="6.175" ry="3.185">
      <animate attributeName="opacity" begin="-0.5s" dur="1.2s" keyTimes="0;1" repeatCount="indefinite" values="1;0"/>
    </rect>
  </g>
  <g transform="rotate(210 50 50)">
    <rect x="47.5" y="24.5" width="5" height="13" rx="6.175" ry="3.185">
      <animate attributeName="opacity" begin="-0.39999999999999997s" dur="1.2s" keyTimes="0;1" repeatCount="indefinite" values="1;0"/>
    </rect>
  </g>
  <g transform="rotate(240 50 50)">
    <rect x="47.5" y="24.5" width="5" height="13" rx="6.175" ry="3.185">
      <animate attributeName="opacity" begin="-0.3s" dur="1.2s" keyTimes="0;1" repeatCount="indefinite" values="1;0"/>
    </rect>
  </g>
  <g transform="rotate(270 50 50)">
    <rect x="47.5" y="24.5" width="5" height="13" rx="6.175" ry="3.185">
      <animate attributeName="opacity" begin="-0.19999999999999998s" dur="1.2s" keyTimes="0;1" repeatCount="indefinite" values="1;0"/>
    </rect>
  </g>
  <g transform="rotate(300 50 50)">
    <rect x="47.5" y="24.5" width="5" height="13" rx="6.175" ry="3.185">
      <animate attributeName="opacity" begin="-0.09999999999999999s" dur="1.2s" keyTimes="0;1" repeatCount="indefinite" values="1;0"/>
    </rect>
  </g>
  <g transform="rotate(330 50 50)">
    <rect x="47.5" y="24.5" width="5" height="13" rx="6.175" ry="3.185">
      <animate attributeName="opacity" begin="0s" dur="1.2s" keyTimes="0;1" repeatCount="indefinite" values="1;0"/>
    </rect>
  </g>
</svg>
