<?xml version="1.0" encoding="utf-8"?>
<!-- Generator: Adobe Illustrator 18.0.0, SVG Export Plug-In . SVG Version: 6.00 Build 0)  -->
<!DOCTYPE svg PUBLIC "-//W3C//DTD SVG 1.1//EN" "http://www.w3.org/Graphics/SVG/1.1/DTD/svg11.dtd">
<svg version="1.1" id="Layer_1" xmlns="http://www.w3.org/2000/svg" xmlns:xlink="http://www.w3.org/1999/xlink" x="0px" y="0px"
	 viewBox="0 0 30 25" enable-background="new 0 0 30 25" xml:space="preserve">
<g>
	<path fill="none" stroke="#221F1F" stroke-miterlimit="10" d="M14.8,16.5c0-0.1-1.2-3.1-3-5.5c-0.6-0.7-1-1.7-1-2.7
		c0-2.3,1.9-4.2,4.2-4.2c2.3,0,4.2,1.9,4.2,4.2c0,0.8-0.2,1.7-0.7,2.3c-0.1,0.1-0.1,0.2-0.2,0.3c-1.7,2.4-3,5.5-3,5.6l-0.2,1
		L14.8,16.5z M15,6.7c-0.8,0-1.4,0.6-1.4,1.4c0,0.8,0.6,1.4,1.4,1.4c0.8,0,1.4-0.6,1.4-1.4C16.4,7.3,15.8,6.7,15,6.7z"/>
	<path fill="none" stroke="#221F1F" stroke-linecap="round" stroke-miterlimit="10" d="M12.7,18.2c-2.1,0.2-3.5,0.7-3.5,1.3
		c0,0.8,2.6,1.4,5.8,1.4s5.8-0.6,5.8-1.4c0-0.6-1.5-1.1-3.5-1.3"/>
</g>
</svg>
