<?xml version="1.0" encoding="UTF-8"?>
<svg width="14px" height="19px" viewBox="0 0 14 19" version="1.1" xmlns="http://www.w3.org/2000/svg" xmlns:xlink="http://www.w3.org/1999/xlink">
    <!-- Generator: Sketch 52.2 (67145) - http://www.bohemiancoding.com/sketch -->
    <title>Untitled 2</title>
    <desc>Created with Sketch.</desc>
    <g id="Page-1" stroke="none" stroke-width="1" fill="none" fill-rule="evenodd">
        <g id="location-icon" transform="translate(1.000000, 1.000000)" stroke="#007BFF">
            <path d="M5.8,12.5 C5.8,12.4 4.6,9.4 2.8,7 C2.2,6.3 1.8,5.3 1.8,4.3 C1.8,2 3.7,0.1 6,0.1 C8.3,0.1 10.2,2 10.2,4.3 C10.2,5.1 10,6 9.5,6.6 C9.4,6.7 9.4,6.8 9.3,6.9 C7.6,9.3 6.3,12.4 6.3,12.5 L6.1,13.5 L5.8,12.5 Z M6,2.7 C5.2,2.7 4.6,3.3 4.6,4.1 C4.6,4.9 5.2,5.5 6,5.5 C6.8,5.5 7.4,4.9 7.4,4.1 C7.4,3.3 6.8,2.7 6,2.7 Z" id="Shape"></path>
            <path d="M3.7,14.2 C1.6,14.4 0.2,14.9 0.2,15.5 C0.2,16.3 2.8,16.9 6,16.9 C9.2,16.9 11.8,16.3 11.8,15.5 C11.8,14.9 10.3,14.4 8.3,14.2" id="Path" fill="#F2F2F2" stroke-linecap="round"></path>
        </g>
    </g>
</svg>