<?xml version="1.0" encoding="UTF-8"?>
<svg version="1.1" viewBox="0 0 14 19" xmlns="http://www.w3.org/2000/svg">
    <g fill="none" fill-rule="evenodd">
        <g transform="translate(1 1)" stroke="#007BFF">
            <path d="m5.8 12.5c0-0.1-1.2-3.1-3-5.5-0.6-0.7-1-1.7-1-2.7 0-2.3 1.9-4.2 4.2-4.2s4.2 1.9 4.2 4.2c0 0.8-0.2 1.7-0.7 2.3-0.1 0.1-0.1 0.2-0.2 0.3-1.7 2.4-3 5.5-3 5.6l-0.2 1-0.3-1zm0.2-9.8c-0.8 0-1.4 0.6-1.4 1.4s0.6 1.4 1.4 1.4 1.4-0.6 1.4-1.4-0.6-1.4-1.4-1.4z"/>
            <path d="m3.7 14.2c-2.1 0.2-3.5 0.7-3.5 1.3 0 0.8 2.6 1.4 5.8 1.4s5.8-0.6 5.8-1.4c0-0.6-1.5-1.1-3.5-1.3" fill="#F2F2F2" stroke-linecap="round"/>
        </g>
    </g>
</svg>
