<?xml version="1.0" encoding="utf-8"?>
<!-- Generator: Adobe Illustrator 18.0.0, SVG Export Plug-In . SVG Version: 6.00 Build 0)  -->
<!DOCTYPE svg PUBLIC "-//W3C//DTD SVG 1.1//EN" "http://www.w3.org/Graphics/SVG/1.1/DTD/svg11.dtd">
<svg version="1.1" id="Layer_1" xmlns="http://www.w3.org/2000/svg" xmlns:xlink="http://www.w3.org/1999/xlink" x="0px" y="0px"
	 viewBox="0 0 -50 50" enable-background="new 0 0 176.8 45.2" xml:space="preserve">
<g>
	<g>
		<g>
			<path fill="#221F1F" d="M114.8,23.5c0-2.4-4.7-4.4-10.6-4.4c-0.9,0-1.8,0-2.6,0.1L94,16.8c-1.1-0.4-2.5,0.1-2.5,0.1l-6.4,2.6
				c-1.8-0.4-3.7-0.6-5.7-0.6c-8.2,0-14.8,3.5-14.8,7.8c0,1.1,0.4,2.1,1.1,3c0,0.4,0,0.8,0,1.3c0.1,1.4,0.2,1.7,0.2,1.7
				c2,3.5,9.9,2.3,9.9,2.3c1.3,4.4,9.3,4.3,9.3,4.3c10.2,0.1,10.7-3.8,10.7-3.8s13.9-5.2,15.3-5.9c1.4-0.7,1.6-1.9,1.6-1.9
				s0-0.6-0.1-1.7C114.1,25.3,114.8,24.4,114.8,23.5z"/>
		</g>
		<g>
			<ellipse fill="#ECB1B0" cx="92.4" cy="28.1" rx="8.9" ry="3.5"/>
		</g>
		<g>
			<ellipse fill="#ECB1B0" cx="103.8" cy="23.4" rx="10.2" ry="3.6"/>
		</g>
		<g>
			<ellipse fill="#ECB1B0" cx="79.2" cy="25.4" rx="14.8" ry="7.8"/>
			<path fill="#221F1F" d="M79.2,33.8c-8.6,0-15.3-3.7-15.3-8.4S70.6,17,79.2,17s15.3,3.7,15.3,8.4S87.8,33.8,79.2,33.8z M79.2,18.1
				c-7.9,0-14.3,3.3-14.3,7.3s6.4,7.3,14.3,7.3s14.3-3.3,14.3-7.3S87,18.1,79.2,18.1z"/>
		</g>
		<g>
			<polyline fill="#221F1F" points="78.9,30.1 78.9,31.3 85.3,34.3 116.7,19.9 116.7,19.9 116.7,18.7 			"/>
			<path fill="#221F1F" d="M85.3,34.8c-0.1,0-0.2,0-0.2-0.1l-6.4-3c-0.2-0.1-0.3-0.3-0.3-0.5v-1.2c0-0.3,0.2-0.5,0.5-0.5
				c0.3,0,0.5,0.2,0.5,0.5V31l5.9,2.7l30.9-14.2l0-0.8c0-0.3,0.2-0.5,0.5-0.5c0,0,0,0,0,0c0.3,0,0.5,0.2,0.5,0.5l0,1.1
				c0,0.2-0.1,0.4-0.3,0.5c0,0,0,0-0.1,0L85.5,34.8C85.4,34.8,85.4,34.8,85.3,34.8z"/>
		</g>
		<g>
			<path fill="#221F1F" d="M60.2,21.5v1.2l10.7,5l0,0c0.8-0.2,1.8-0.3,2.8-0.3c3.2,0,5.2,1.2,5.6,2.4l0.8,1h3.8l10.9-4.2"/>
			<path fill="#221F1F" d="M83.9,31.3h-3.8c-0.2,0-0.3-0.1-0.4-0.2l-0.8-1c0,0-0.1-0.1-0.1-0.2c-0.4-1-2.1-2.1-5.1-2.1
				c-0.9,0-1.9,0.1-2.7,0.3c-0.1,0-0.3,0-0.4,0l-10.7-5c-0.2-0.1-0.3-0.3-0.3-0.5v-1.2c0-0.3,0.2-0.5,0.5-0.5s0.5,0.2,0.5,0.5v0.8
				l10.2,4.8c0.9-0.2,1.8-0.3,2.8-0.3c3.7,0,5.6,1.4,6.1,2.7l0.6,0.7h3.4l10.8-4.1c0.3-0.1,0.6,0,0.7,0.3c0.1,0.3,0,0.6-0.3,0.7
				l-10.9,4.2C84,31.3,83.9,31.3,83.9,31.3z"/>
		</g>
		<g>
			<path fill="none" stroke="#221F1F" stroke-width="4" stroke-linecap="round" stroke-linejoin="round" stroke-miterlimit="10" d="
				M73.7,31.6"/>
		</g>
		<g>
			<path fill="#FFEDCA" d="M66.4,18.8l-6.2,2.7l10.7,5l0,0c0.8-0.2,1.8-0.3,2.8-0.3c3.2,0,5.9,1.2,5.9,2.8c0,0.5-0.3,0.9-0.7,1.3
				l6.4,3l31.4-14.4l0,0c-0.7-0.2-1.2-0.5-1.2-1c0-0.3,0.3-0.6,0.8-0.8l0,0l-3.8-1.3"/>
			<path fill="#221F1F" d="M85.3,33.7c-0.1,0-0.2,0-0.2-0.1l-6.4-3c-0.2-0.1-0.3-0.2-0.3-0.4c0-0.2,0-0.4,0.2-0.5
				c0.2-0.2,0.5-0.5,0.5-0.9c0-1-2.2-2.2-5.3-2.2c-0.9,0-1.9,0.1-2.7,0.3c-0.1,0-0.3,0-0.4,0l-10.7-5c-0.2-0.1-0.3-0.3-0.3-0.5
				c0-0.2,0.1-0.4,0.3-0.5l6.2-2.7c0.3-0.1,0.6,0,0.7,0.3c0.1,0.3,0,0.6-0.3,0.7l-5.1,2.2l9.4,4.4c0.9-0.2,1.8-0.3,2.8-0.3
				c3.7,0,6.4,1.4,6.4,3.3c0,0.4-0.1,0.8-0.4,1.1l5.5,2.6l30.1-13.8c-0.3-0.3-0.5-0.6-0.5-1c0-0.2,0.1-0.4,0.2-0.6l-2.9-0.9
				c-0.3-0.1-0.4-0.4-0.3-0.7c0.1-0.3,0.4-0.4,0.7-0.3l3.8,1.3c0,0,0.1,0,0.1,0c0.1,0.1,0.2,0.2,0.3,0.3c0.1,0.2,0,0.4-0.1,0.6
				c-0.1,0.1-0.1,0.1-0.2,0.1c-0.3,0.1-0.4,0.3-0.4,0.3c0,0.1,0.2,0.3,0.8,0.4c0.2,0,0.3,0.1,0.4,0.3c0.1,0.3,0.1,0.6-0.2,0.7
				c0,0,0,0-0.1,0L85.5,33.6C85.4,33.7,85.4,33.7,85.3,33.7z"/>
		</g>
		<g>
			<path fill="none" stroke="#221F1F" stroke-width="4" stroke-linecap="round" stroke-linejoin="round" stroke-miterlimit="10" d="
				M112.4,16.8"/>
		</g>
		<g>
			<path fill="none" stroke="#221F1F" stroke-width="4" stroke-linecap="round" stroke-linejoin="round" stroke-miterlimit="10" d="
				M116.3,18.1"/>
		</g>
		<g>
			<path fill="#221F1F" d="M85.3,34.8c-0.3,0-0.5-0.2-0.5-0.5v-1.2c0-0.3,0.2-0.5,0.5-0.5c0.3,0,0.5,0.2,0.5,0.5v1.2
				C85.8,34.6,85.6,34.8,85.3,34.8z"/>
		</g>
		<g>
			<path fill="#221F1F" d="M116.3,19.1c-0.3,0-0.5-0.2-0.5-0.5v-1.7c0-0.3,0.2-0.5,0.5-0.5s0.5,0.2,0.5,0.5v1.7
				C116.8,18.9,116.6,19.1,116.3,19.1z"/>
		</g>
		<g>
			<path fill="#221F1F" d="M70.9,28.1c-0.3,0-0.5-0.2-0.5-0.5v-1.2c0-0.3,0.2-0.5,0.5-0.5c0.3,0,0.5,0.2,0.5,0.5v1.2
				C71.4,27.9,71.2,28.1,70.9,28.1z"/>
		</g>
		<g>
			<path fill="#221F1F" d="M94.4,6l17.4,6.3c0,0,1,0.4,1,2.3s0,3.1,0,3.1s-0.2,1.2-1.6,1.8C109.8,20.1,96,25,96,25
				s-1.3,5.1-11.4,4.6c0,0-8-0.2-9.2-4.7c0,0-7.4,0.5-9.2-3.1c0,0-0.5-1.3-0.5-2.7c0-1.4,0-2.3,0-2.3s-0.5-5.6,9.9-4.8l16.3-6
				C91.9,6,93.3,5.6,94.4,6z"/>
		</g>
		<g>
			<path fill="#DBBDA0" d="M93.7,6.9l17.2,6.1c0,0,1.3,0.4,0,1c-1.3,0.6-16.9,6.3-16.9,6.3s0.3,5.6-12.4,3.8c0,0-7.8-1.3-4.4-5.4
				c0,0-6.4,1.5-9.5-1.4c-2.1-2,3-5.6,8.2-4.1l16.4-6.3C92.4,6.9,93,6.7,93.7,6.9z"/>
		</g>
		<g>
			<ellipse fill="#B3947C" cx="73.7" cy="15.6" rx="0.7" ry="0.3"/>
		</g>
		<g>
			<ellipse fill="#B3947C" cx="79.2" cy="19.4" rx="0.7" ry="0.3"/>
		</g>
		<g>
			<ellipse fill="#DB8E8E" cx="72.7" cy="29.8" rx="0.4" ry="0.1"/>
		</g>
		<g>
			<ellipse fill="#DB8E8E" cx="68.7" cy="28.6" rx="0.7" ry="0.3"/>
		</g>
		<g>
			<ellipse fill="#B3947C" cx="82.6" cy="15.7" rx="0.5" ry="0.2"/>
		</g>
		<g>
			<ellipse fill="#B3947C" cx="85.1" cy="11.5" rx="0.7" ry="0.3"/>
		</g>
		<g>
			<ellipse fill="#B3947C" cx="88.1" cy="14.2" rx="0.7" ry="0.3"/>
		</g>
		<g>
			<ellipse fill="#B3947C" cx="94.3" cy="9.3" rx="0.7" ry="0.3"/>
		</g>
		<g>
			<ellipse fill="#B3947C" cx="89.6" cy="22.4" rx="0.6" ry="0.2"/>
		</g>
		<g>
			<ellipse fill="#DB8E8E" cx="76.8" cy="31.6" rx="0.7" ry="0.3"/>
		</g>
		<g>
			<ellipse fill="#DB8E8E" cx="97.1" cy="30.5" rx="0.7" ry="0.3"/>
		</g>
		<g>
			<ellipse fill="#DB8E8E" cx="112.2" cy="24.4" rx="0.7" ry="0.3"/>
		</g>
		<g>
			<ellipse fill="#DB8E8E" cx="108" cy="25.3" rx="0.5" ry="0.2"/>
		</g>
		<g>
			<ellipse fill="#B3947C" cx="101.6" cy="14.5" rx="1.1" ry="0.4"/>
		</g>
	</g>
	<g>
		<path fill="#FFFFFF" d="M15.6,11.4c0.9,0,1.7,0.7,1.7,1.9c0,2.3-2.3,4.3-5.1,5.3c-0.1,1-0.3,3.2-0.4,3.8c4.1,0.6,5.2,3.4,5.2,5.3
			c0,2.3-1.9,3.6-2.2,3.6c-0.3,0-0.6-0.3-0.6-0.6c0-0.2,0.1-0.4,0.3-0.5c1-0.7,1.5-1.6,1.5-2.6c0-1.5-0.8-3.7-4.3-4.2
			C10.7,27.8,9,30,6.3,30c-1.4,0-2.6-1-2.6-2.6c0-2.1,2.1-5.1,7-5c0.1-0.8,0.2-1.1,0.3-3.5c-0.5,0.1-1,0.1-1.5,0.1
			c-2.3,0-4-1.2-4-3.4c0-0.3,0.2-0.6,0.6-0.6c0.3,0,0.5,0.3,0.5,0.6c0,1.9,1.8,2.3,2.9,2.3c0.6,0,1.1-0.1,1.6-0.2
			C11.5,14.2,13.3,11.4,15.6,11.4z M10.5,23.5c-3.9,0-5.7,2.2-5.7,3.9c0,1,0.7,1.5,1.5,1.5C8.4,28.9,9.8,27,10.5,23.5z M16.1,13.3
			c0-0.5-0.3-0.8-0.7-0.8c-0.9,0-2.5,1.1-3.1,4.9C14.5,16.6,16.1,14.8,16.1,13.3z"/>
		<path fill="#FFFFFF" d="M20.5,21.3c-0.3,1.1-0.6,2.9-0.6,4.4c0,1.2,0.2,2.4,1.1,2.4c1.6,0,3.1-3.3,3.6-7.3
			c0.1-0.3,0.3-0.5,0.7-0.5c0.3,0,0.5,0.3,0.4,0.6c0,0.3-0.2,1.2-0.4,2.1c-0.2,1.4-0.4,2.5-0.4,3.4c0,0.8,0.2,1.4,0.5,1.7
			c0.1,0.1,0.1,0.3,0.1,0.4c0,0.3-0.3,0.6-0.6,0.6c-0.5,0-1.2-1.1-1.1-2.5c-0.7,1.6-1.7,2.5-2.9,2.5c-0.9,0-2.2-0.6-2.2-3.5
			c0-1.7,0.4-3.6,0.6-4.5c0.1-0.2,0.1-0.6,0.6-0.6c0.3,0,0.6,0.3,0.6,0.6V21.3z"/>
		<path fill="#FFFFFF" d="M34.1,23.8c0,1.8-0.4,3.8-0.6,4.6C33.4,29,33,29,33,29c-0.3,0-0.6-0.3-0.6-0.6c0,0,0-0.1,0-0.1
			c0.2-0.9,0.6-2.8,0.6-4.4c0-1.3-0.3-2.3-0.9-2.3c-1.4,0-3,2.9-3.8,7C28.2,28.8,28,29,27.7,29c-0.3,0-0.5-0.3-0.5-0.6
			c0-0.3,0.5-2.1,0.6-2.5c0.3-1.1,0.5-2.2,0.5-3.1c0-0.8-0.1-1.2-0.5-1.5c-0.1-0.1-0.1-0.3-0.1-0.4c0-0.3,0.3-0.5,0.6-0.5
			c0.5,0,1.2,0.9,1.1,2.4c0.7-1.6,1.7-2.4,2.8-2.4C32.7,20.4,34.1,20.7,34.1,23.8z"/>
		<path fill="#FFFFFF" d="M42.2,21.6c0,0.3-0.2,0.6-0.5,0.6c-0.2,0-0.4-0.1-0.5-0.3c-0.2-0.3-0.4-0.5-0.9-0.5c-2,0-3,2.6-3,4.5
			c0,2,1.1,2.3,1.7,2.3c0.7,0,1.6-0.4,2.1-1.3c0.1-0.2,0.3-0.3,0.5-0.3c0.3,0,0.5,0.3,0.5,0.6c0,0.5-1.2,2-3.1,2
			c-1.6,0-2.7-1-2.7-3.3c0-2.7,1.7-5.6,4.2-5.6c1,0,1.5,0.4,1.7,0.9C42.2,21.3,42.2,21.5,42.2,21.6z"/>
		<path fill="#FFFFFF" d="M44.2,28.6c-0.1-0.8-0.2-1.2-0.2-2.1c0-2.8,0.6-6,0.8-7.1c-0.2,0-0.5,0-0.7,0c-0.5,0-1,0-1-0.6
			c0-0.3,0.3-0.6,0.5-0.5h0.5c0.3,0,0.7,0,1-0.1c0.8-2.5,2.3-5.3,4.3-5.3c1.1,0,1.7,0.7,1.7,1.7c0,2-2.6,3.9-5.1,4.6
			c-0.2,0.9-0.6,2.7-0.9,5.1c0.8-2.5,2.3-4.1,3.7-4.1c2,0,2,2.6,2,3.7c0,2.1-0.5,4.2-0.6,4.4c-0.1,0.3-0.3,0.4-0.5,0.4
			c-0.3,0-0.6-0.3-0.6-0.6c0-0.1,0-0.1,0-0.2c0.2-0.8,0.6-2.5,0.6-4.1c0-1.9-0.3-2.6-1-2.6c-1.6,0-3.8,4.2-3.4,7
			c0.1,0.3-0.2,0.6-0.5,0.6C44.5,29,44.3,28.8,44.2,28.6z M46.4,18c2-0.7,3.7-2.1,3.7-3.4c0-0.4-0.2-0.7-0.6-0.7
			C48.5,14,47.2,15.7,46.4,18z"/>
	</g>
	<g>
		<path fill="#FFFFFF" d="M138.9,18.4c0,2.9-2.8,4.5-4.5,4.5c-0.3,0-0.6-0.3-0.6-0.6c0-0.3,0.2-0.5,0.5-0.5c1.4-0.1,3.4-1.3,3.4-3.4
			c0-2-1.5-3.4-3.7-3.4c-1.1,0-2.2,0.3-3.1,0.8c1,1.9,1.5,4.5,1.5,7.1c0,4.6-1.4,7.3-3.6,7.3c-1.9,0-3.1-1.7-3.1-5.3
			c0-3.2,1.2-7,3.8-9.3c-0.7-0.9-1.8-1.6-3-1.6c-0.3,0-0.6-0.2-0.6-0.5c0-0.3,0.3-0.6,0.6-0.6c1.5,0,2.9,0.8,3.8,2
			c1.1-0.6,2.3-1,3.7-1C136.9,14,138.9,15.9,138.9,18.4z M130.1,16.5c-2.3,2.1-3.2,5.8-3.2,8.3c0,2.2,0.6,4.4,2,4.4
			c1.3,0,2.4-2.3,2.4-6.1C131.4,20.8,131,18.3,130.1,16.5z"/>
		<path fill="#FFFFFF" d="M141.7,22.1c0,0,0,0.1,0,0.1c-0.5,1.8-0.9,5.1-1.1,7.5c0,0.3-0.3,0.5-0.6,0.5c-0.3,0-0.6-0.3-0.6-0.6
			c0-0.3,0.4-4.7,1.1-7.7c0.1-0.3,0.4-0.5,0.7-0.4C141.5,21.6,141.7,21.8,141.7,22.1z"/>
		<path fill="#FFFFFF" d="M149.5,22.6c0,0.3-0.2,0.6-0.5,0.6c-0.2,0-0.4-0.1-0.5-0.3c-0.2-0.3-0.4-0.5-0.9-0.5c-2,0-3,2.6-3,4.5
			c0,2,1.1,2.3,1.7,2.3c0.7,0,1.6-0.4,2.1-1.3c0.1-0.2,0.3-0.3,0.5-0.3c0.3,0,0.5,0.3,0.5,0.6c0,0.5-1.2,2-3.1,2
			c-1.6,0-2.7-1-2.7-3.3c0-2.7,1.7-5.6,4.2-5.6c1,0,1.5,0.4,1.7,0.9C149.4,22.3,149.5,22.5,149.5,22.6z"/>
		<path fill="#FFFFFF" d="M153.2,28.2c0,0.7,0.1,0.9,0.1,1c0.1,0.1,0.1,0.2,0.1,0.3c0,0.3-0.3,0.6-0.6,0.6c-0.7,0-0.8-1.1-0.8-1.8
			c0-0.5,0.1-1.2,0.2-1.9c-1.3-0.4-1.8-1.2-1.8-1.9c0-1.1,0.9-2,2.5-2c0.1-0.6,0.3-1.2,0.4-1.7c0.5-2.3,0.8-3.6,0.8-4.6
			c0-0.5,0-0.8-0.1-1c0-0.1-0.1-0.2-0.1-0.2c0-0.3,0.2-0.5,0.4-0.5c0.1,0,0.2,0,0.2,0c0.7,0,0.7,0.9,0.7,1.7c0,1.2-0.4,2.8-0.7,4.3
			c-0.2,0.6-0.3,1.3-0.5,2.2c1,0.2,1.8,0.9,2.3,1.5c0.5-0.5,1.1-1.4,1.2-2.3c0-0.3,0.2-0.5,0.5-0.5c0.3,0,0.6,0.3,0.6,0.6
			c0,1.1-1,2.6-1.7,3.1c1,1.3,1.5,3.1,1.5,4.6c0,0.6-0.4,0.6-0.6,0.6c-0.1,0-0.5,0-0.5-0.6c0-1.3-0.4-2.8-1.2-3.9
			c-0.6,0.4-1.6,0.9-2.8,0.9C153.3,27.1,153.2,27.7,153.2,28.2z M152.4,25.3c0.1-0.6,0.2-1.3,0.4-1.9c-0.6,0-1.2,0.4-1.2,1
			c0,0.2,0.1,0.5,0.3,0.6C152,25.1,152.2,25.2,152.4,25.3z M153.6,25.4c0.8,0,1.6-0.3,2.1-0.8c-0.4-0.5-1.1-1.1-1.8-1.2
			C153.7,24.1,153.6,24.8,153.6,25.4L153.6,25.4z"/>
		<path fill="#FFFFFF" d="M165.2,23.3c0-0.5-0.4-0.9-1-0.9c-1.3,0-3.1,1.6-3.1,4.3c0,0.9,0.3,2.4,2.1,2.4c0.7,0,1.3-0.3,1.8-0.8
			c0.1-0.1,0.2-0.2,0.4-0.2c0.3,0,0.5,0.3,0.5,0.6c0,0.5-1.2,1.5-2.7,1.5c-1.9,0-3.2-1.3-3.2-3.4c0-3.2,2.2-5.4,4.2-5.4
			c1.5,0,2.1,0.9,2.1,1.9c0,2-2.1,3-3.6,3c-0.3,0-0.6-0.2-0.6-0.5c0-0.3,0.2-0.5,0.6-0.6C164,25.1,165.2,24.4,165.2,23.3z"/>
		<path fill="#FFFFFF" d="M168.7,29.6c-0.1,0.3-0.3,0.5-0.6,0.5c-0.3,0-0.5-0.3-0.5-0.6c0-0.2,0.7-4.3,0.7-5.1
			c0-1.1-0.2-1.5-0.6-1.9c-0.1-0.1-0.2-0.3-0.2-0.4c0-0.3,0.3-0.6,0.5-0.6c0.5,0,1.2,0.9,1.1,2.1c0.6-1.7,1.9-2.4,3.2-2.4
			c0.3,0,0.6,0.2,0.6,0.6c0,0.3-0.2,0.5-0.5,0.5c-2.6,0.2-3.1,3.2-3.7,6.5L168.7,29.6z"/>
		<circle fill="#FFFFFF" cx="141.7" cy="19.1" r="0.8"/>
	</g>
</g>
</svg>
